<?xml version="1.0" encoding="utf-8"?>
<!-- Generator: Adobe Illustrator 19.0.0, SVG Export Plug-In . SVG Version: 6.00 Build 0)  -->
<svg version="1.1" id="Calque_1" xmlns="http://www.w3.org/2000/svg" xmlns:xlink="http://www.w3.org/1999/xlink" x="0px" y="0px"
	 viewBox="0 0 161.6 204.2" style="enable-background:new 0 0 161.6 204.2;" xml:space="preserve">
<style type="text/css">
	.st0{clip-path:url(#SVGID_2_);fill:#486175;}
</style>
<g>
	<defs>
		<rect id="SVGID_1_" width="161.6" height="204.2"/>
	</defs>
	<clipPath id="SVGID_2_">
		<use xlink:href="#SVGID_1_"  style="overflow:visible;"/>
	</clipPath>
	<path class="st0" d="M154.4,28.6c-9.4-1.9-24.9-5.2-31.5-7.9c-6.8-2.8-22.4-11.9-32.5-18.1c-5.9-3.5-13.2-3.5-19,0
		c-10,6.1-25.2,15-31.8,17.8c-6.8,2.8-22.7,6.2-32.3,8.2c-4.4,0.9-7.4,4.9-7.2,9.3l4.5,84.7c1.1,20.8,11.6,40,28.6,52.2l35.7,25.5
		c7.2,5.1,16.8,5.1,24,0l35.7-25.5c17-12.1,27.5-31.3,28.6-52.2l4.5-84.7C161.9,33.5,158.8,29.5,154.4,28.6 M145.8,52.8l-3.5,65.3
		c-0.9,17-9.3,32.4-23.1,42.3L91.6,180c-3.2,2.3-6.9,3.5-10.8,3.5c-3.9,0-7.6-1.2-10.8-3.5l-27.5-19.7
		c-13.8-9.9-22.3-25.3-23.1-42.3l-3.5-65.3c-0.3-4.7,3-9,7.7-9.9c12-2.4,20.6-4.6,24.4-6.2c3.8-1.5,12.4-6.3,24.2-13.5
		c2.6-1.6,5.7-2.4,8.7-2.4c3.1,0,6.1,0.8,8.7,2.4c12.1,7.3,20.9,12.2,24.7,13.8c3.7,1.5,12.1,3.6,23.8,6
		C142.7,43.8,146,48.1,145.8,52.8"/>
	<path class="st0" d="M135.8,49.2c-8.3-1.7-19.3-4.1-24.2-6.1c-5.1-2.1-16.4-8.7-24.9-13.8c-1.8-1.1-3.8-1.6-5.8-1.6
		c-2.1,0-4.1,0.6-5.8,1.6c-8.3,5.1-19.3,11.5-24.4,13.6c-5.1,2.1-16.3,4.6-24.8,6.3c-2,0.4-3.5,2.3-3.4,4.3l3.4,63.9
		c0.8,15,8.2,28.6,20.5,37.4l26.9,19.2c2.2,1.6,4.8,2.4,7.5,2.4c2.7,0,5.3-0.8,7.5-2.4l26.9-19.2c12.2-8.7,19.7-22.4,20.5-37.4
		l3.4-63.9C139.3,51.5,137.8,49.6,135.8,49.2 M115.4,92.2l-17.8,13.1c-0.8,0.6-1.2,1.7-0.8,2.7l6.8,21c0.7,2.1-1.8,3.9-3.6,2.6
		l-17.8-12.9c-0.8-0.6-1.9-0.6-2.7,0l-17.8,13c-1.8,1.3-4.3-0.5-3.6-2.6l6.8-20.9c0.3-1,0-2-0.8-2.6L46.2,92.2
		c-1.8-1.3-0.9-4.5,1.4-4.5h22c1,0,1.9-0.3,2.2-1.3l6.8-20.8c0.7-2.1,3.7-2.1,4.4,0.1l6.8,20.7c0.3,1,1.2,1.3,2.2,1.3h22
		C116.3,87.7,117.3,90.9,115.4,92.2"/>
</g>
</svg>
