<?xml version="1.0" encoding="utf-8"?>
<!-- Generator: Adobe Illustrator 19.0.0, SVG Export Plug-In . SVG Version: 6.00 Build 0)  -->
<svg version="1.1" id="Calque_1" xmlns="http://www.w3.org/2000/svg" xmlns:xlink="http://www.w3.org/1999/xlink" x="0px" y="0px"
	 viewBox="0 0 42.2 45.8" style="enable-background:new 0 0 42.2 45.8;" xml:space="preserve">
<style type="text/css">
	.st0{clip-path:url(#SVGID_2_);fill:#486175;}
</style>
<g>
	<defs>
		<rect id="SVGID_1_" y="0" width="42.2" height="45.8"/>
	</defs>
	<clipPath id="SVGID_2_">
		<use xlink:href="#SVGID_1_"  style="overflow:visible;"/>
	</clipPath>
	<path class="st0" d="M3.3,0C1.5,0,0,1.5,0,3.3v38.5c0,1.8,1.5,3.3,3.3,3.3h20.2c-1.6-1.5-1.8-1.6-3.2-3.5c0,0,0-0.1,0-0.2H3.7V3.7
		H21V0H3.3z M23.8,0l0.1,13H37L23.8,0z M7.6,14.5C6.7,14.6,6,15.4,6,16.3v3c0,0.9,0.8,1.8,1.8,1.8h3c0.9,0,1.8-0.9,1.8-1.8v-3
		c0-0.9-0.8-1.8-1.8-1.8h-3C7.7,14.5,7.6,14.5,7.6,14.5 M33.3,15.2v6.9c1.3,0.3,2.4,0.6,3.6,1.2c0.2-7.2,0.1-7.2,0.1-8.1H33.3z
		 M14.8,21.1h14.8v-3.4H14.8V21.1z M7.6,23.4C6.7,23.5,6,24.3,6,25.2v3C6,29.2,6.8,30,7.8,30h3c0.9,0,1.8-0.9,1.8-1.8v-3
		c0-0.9-0.8-1.8-1.8-1.8h-3H7.6z M30.5,23.6C24.7,23.9,20,28.8,20,34.7c0,6.1,5,11.1,11.1,11.1c6.1,0,11.1-5,11.1-11.1
		c0-6.1-5-11.1-11.1-11.1H30.5z M15,30H19v-3.5H15V30z M36.6,28.7h0.2c0.7,0,1.3,0.4,1.6,1.1c0.3,0.6,0.1,1.4-0.3,1.8l-7.6,8.4
		c-0.7,0.8-2.1,0.7-2.7-0.1l-3.5-4.6c-0.6-0.7-0.4-1.9,0.3-2.4c0.7-0.5,1.9-0.4,2.4,0.3l2.3,3l6.3-6.9C35.7,29,36.1,28.7,36.6,28.7
		 M7.8,32.2C6.8,32.2,6,33.1,6,34v3c0,0.9,0.8,1.8,1.8,1.8h3c0.9,0,1.8-0.9,1.8-1.8v-3c0-0.9-0.8-1.8-1.8-1.8H7.8z M15,35.4v3.5H19
		l-0.4-3.5H15z"/>
</g>
</svg>
