<?xml version="1.0" encoding="utf-8"?>
<!-- Generator: Adobe Illustrator 19.0.0, SVG Export Plug-In . SVG Version: 6.00 Build 0)  -->
<svg version="1.1" id="Calque_1" xmlns="http://www.w3.org/2000/svg" xmlns:xlink="http://www.w3.org/1999/xlink" x="0px" y="0px"
	 viewBox="0 0 203.4 102.4" style="enable-background:new 0 0 203.4 102.4;" xml:space="preserve">
<style type="text/css">
	.st0{clip-path:url(#SVGID_2_);fill:#486175;}
	.st1{clip-path:url(#SVGID_2_);fill:none;stroke:#486175;stroke-width:8;stroke-miterlimit:10;}
</style>
<g>
	<defs>
		<rect id="SVGID_1_" width="203.4" height="102.4"/>
	</defs>
	<clipPath id="SVGID_2_">
		<use xlink:href="#SVGID_1_"  style="overflow:visible;"/>
	</clipPath>
	<path class="st0" d="M178,51.5c-1,0-1.9,0.1-2.9,0.2l-3-8.2l3.3-1.2L171.5,32c2.4,1.1,5.4,1.8,8.7,1.8V16.3c-5.6,0-10.4,2-12.7,4.9
		l-3.5-9.4l-5.7,2.1l-4.1-10.9C153.5,1.2,151.9,0,150,0h-18.2v9h15.1l3,7.9l-1.5,0.5v0l-3.3,1.2l0,0h0v5.5c-1.6,0.4-3.1,1.2-4.4,2.5
		l-12.3,12.3c-3.6,3.6-3.7,9.4-0.2,13l-4,4h-3.3c-2.1-2.8-5.4-4.7-9.1-4.7h-9.6l4.7-13.1c1.6,0,2.8-1.3,2.8-2.8v-8.8
		c0-1.6-1.3-2.8-2.8-2.8H56c-1.6,0-2.8,1.3-2.8,2.8v3H40v11.9h6.3V49C36,54.1,29,64.6,28.9,76.8h5.8c0,0,0,0.1,0,0.1
		c0,14.1,11.4,25.4,25.4,25.4c10.6,0,19.6-6.4,23.5-15.6h28c6.2,0,11.3-5.1,11.3-11.3v-0.9h8.8v0l0,0L157.3,49l2.4-0.9l3.1,8.4
		c-6.2,4.6-10.3,12.1-10.3,20.4c0,14.1,11.4,25.4,25.4,25.4c14.1,0,25.4-11.4,25.4-25.4C203.4,62.9,192,51.5,178,51.5 M60.2,90.8
		c-7.7,0-13.9-6.2-13.9-13.9c0-7.7,6.2-13.9,13.9-13.9s13.9,6.2,13.9,13.9C74.1,84.6,67.9,90.8,60.2,90.8 M178,90.8
		c-7.7,0-13.9-6.2-13.9-13.9c0-7.7,6.2-13.9,13.9-13.9c7.7,0,13.9,6.2,13.9,13.9C191.9,84.6,185.7,90.8,178,90.8"/>
	<line class="st1" x1="52.9" y1="8.2" x2="7.8" y2="8.2"/>
	<line class="st1" x1="25.8" y1="23.2" x2="0" y2="23.2"/>
</g>
</svg>
