<?xml version="1.0" encoding="utf-8"?>
<!-- Generator: Adobe Illustrator 19.0.0, SVG Export Plug-In . SVG Version: 6.00 Build 0)  -->
<svg version="1.1" id="Calque_1" xmlns="http://www.w3.org/2000/svg" xmlns:xlink="http://www.w3.org/1999/xlink" x="0px" y="0px"
	 viewBox="0 0 47.5 45.8" style="enable-background:new 0 0 47.5 45.8;" xml:space="preserve">
<style type="text/css">
	.st0{clip-path:url(#SVGID_2_);fill:#486175;}
</style>
<g>
	<defs>
		<rect id="SVGID_1_" y="0" width="47.5" height="45.8"/>
	</defs>
	<clipPath id="SVGID_2_">
		<use xlink:href="#SVGID_1_"  style="overflow:visible;"/>
	</clipPath>
	<path class="st0" d="M38.9,0c-2,0.1-4,0.9-5.5,2.4c-0.1,0.1-0.2,0.2-0.3,0.3c-0.3,0.4-0.6,0.8-0.8,1.3c0,0,0,0-0.1,0.1
		c-2.9,5-6.8,16.6-5.6,17.7c1.1,1,12.1-3.5,16.9-6.7h0c0.1,0,0.2-0.1,0.2-0.2c0.5-0.3,0.9-0.6,1.3-1c0.1-0.1,0.2-0.2,0.3-0.3
		c2.9-3.1,2.8-8.2-0.6-11.3C43.1,0.7,41-0.1,38.9,0L38.9,0z M20.9,4C13.4,4,6.2,8,2.4,15C-3,25.2,0.9,37.9,11.1,43.3
		c10.2,5.4,22.9,1.5,28.3-8.7c1.4-2.6,2.2-5.4,2.4-8.2c-1.1,0.5-2.3,0.9-3.5,1.2c0,0.3-0.1,0.6-0.2,0.9c-0.1-0.3-0.2-0.6-0.3-0.8
		c-0.8,0.1-1.6,0.2-2.4,0.2c0,0.1,0.1,0.2,0.1,0.3c0.6,1.4,0.8,2.7,0.8,3.6l-5.6-3l0.8-1.5c-0.7-0.2-1.5-0.5-2.2-0.9l-0.7,1.2
		l-6.2-3.3l1.4-2.7c-0.5-0.8-1-1.6-1.3-2.5l-2.2,4.1L14.2,20l2.8-5.3c1.4,0.3,3,0.8,4.7,1.5c-0.1-0.9-0.2-1.7-0.2-2.6
		c-1.2-0.4-2.3-0.8-3.3-1L21,7.2c0.7,0,1.4,0.1,2.1,0.2l0.1-0.2c0.5-1,1.2-2,1.9-2.8C23.7,4.1,22.3,4,20.9,4L20.9,4z M39.6,4.2
		c0.5,0,0.9,0.1,1.3,0.2c0.1,0,0.2,0.1,0.3,0.1c0.3,0.2,0.6,0.4,0.9,0.6c1.4,1.3,1.6,3.7,0,5.4c-0.1,0.1-0.2,0.2-0.3,0.3
		c-1.6,1.4-3.8,1.2-5.1,0.1c-1.3-1.2-1.6-3.4-0.3-5.1c0,0,0,0,0,0c0.1-0.1,0.2-0.2,0.3-0.3c0.1-0.1,0.2-0.2,0.3-0.3
		c0.5-0.5,1.1-0.8,1.7-0.9c0.1,0,0.3-0.1,0.4-0.1C39.3,4.2,39.5,4.2,39.6,4.2L39.6,4.2z M18.2,7.4l-2.5,4.7
		c-2.6-0.4-4.9-0.2-6.7,0.3c-0.3,0.1-0.5,0.1-0.7,0.2C11,9.8,14.5,8,18.2,7.4 M12.4,14.3c0.6,0,1.3,0,2.1,0.1l-2.4,4.5l-5.6-3
		c0.7-0.4,1.7-0.9,3.1-1.2C10.4,14.5,11.4,14.3,12.4,14.3 M5.4,18l5.6,3l-2.4,4.5c-1.2-1.5-2-3-2.5-4.2C5.6,19.9,5.4,18.8,5.4,18
		 M3.6,21.3c0.1,0.2,0.2,0.5,0.3,0.7c0.7,1.7,1.7,3.7,3.5,5.7l-2.5,4.7C3.4,29,2.9,25.1,3.6,21.3 M13.1,22l6.2,3.3L16,31.6
		c-2.4-1.4-4.3-2.8-5.7-4.2L13.1,22z M21.4,26.4l6.2,3.3l-2.8,5.3c-2-0.4-4.2-1.2-6.7-2.4L21.4,26.4z M9.2,29.5
		c1.5,1.4,3.4,2.8,5.8,4.2l-3.3,6.2c-2.2-1.3-3.9-3-5.3-5L9.2,29.5z M29.7,30.9l5.6,3c-0.8,0.5-1.9,1-3.4,1.3
		c-1.3,0.3-2.8,0.4-4.6,0.3L29.7,30.9z M17,34.8c2.4,1.2,4.6,2,6.6,2.5l-2.8,5.3c-2.4,0-4.9-0.5-7.2-1.6L17,34.8z M33.6,37.1
		c-2.7,2.8-6.2,4.6-10,5.2l2.4-4.6c2.5,0.3,4.6,0.1,6.3-0.3C32.8,37.3,33.2,37.2,33.6,37.1"/>
</g>
</svg>
